<svg width="56" height="18" viewBox="0 0 56 18" fill="none" xmlns="http://www.w3.org/2000/svg">
<rect width="56" height="18" rx="9" fill="#ED7650"/>
<path d="M15.588 4.684V5.692H12.972V13H11.808V5.692H9.192V4.684H15.588ZM18.3181 12.196C18.5821 12.196 18.8141 12.192 19.0141 12.184C19.2221 12.168 19.3941 12.144 19.5301 12.112V10.252C19.4501 10.212 19.3181 10.18 19.1341 10.156C18.9581 10.124 18.7421 10.108 18.4861 10.108C18.3181 10.108 18.1381 10.12 17.9461 10.144C17.7621 10.168 17.5901 10.22 17.4301 10.3C17.2781 10.372 17.1501 10.476 17.0461 10.612C16.9421 10.74 16.8901 10.912 16.8901 11.128C16.8901 11.528 17.0181 11.808 17.2741 11.968C17.5301 12.12 17.8781 12.196 18.3181 12.196ZM18.2221 6.604C18.6701 6.604 19.0461 6.664 19.3501 6.784C19.6621 6.896 19.9101 7.06 20.0941 7.276C20.2861 7.484 20.4221 7.736 20.5021 8.032C20.5821 8.32 20.6221 8.64 20.6221 8.992V12.892C20.5261 12.908 20.3901 12.932 20.2141 12.964C20.0461 12.988 19.8541 13.012 19.6381 13.036C19.4221 13.06 19.1861 13.08 18.9301 13.096C18.6821 13.12 18.4341 13.132 18.1861 13.132C17.8341 13.132 17.5101 13.096 17.2141 13.024C16.9181 12.952 16.6621 12.84 16.4461 12.688C16.2301 12.528 16.0621 12.32 15.9421 12.064C15.8221 11.808 15.7621 11.5 15.7621 11.14C15.7621 10.796 15.8301 10.5 15.9661 10.252C16.1101 10.004 16.3021 9.804 16.5421 9.652C16.7821 9.5 17.0621 9.388 17.3821 9.316C17.7021 9.244 18.0381 9.208 18.3901 9.208C18.5021 9.208 18.6181 9.216 18.7381 9.232C18.8581 9.24 18.9701 9.256 19.0741 9.28C19.1861 9.296 19.2821 9.312 19.3621 9.328C19.4421 9.344 19.4981 9.356 19.5301 9.364V9.052C19.5301 8.868 19.5101 8.688 19.4701 8.512C19.4301 8.328 19.3581 8.168 19.2541 8.032C19.1501 7.888 19.0061 7.776 18.8221 7.696C18.6461 7.608 18.4141 7.564 18.1261 7.564C17.7581 7.564 17.4341 7.592 17.1541 7.648C16.8821 7.696 16.6781 7.748 16.5421 7.804L16.4101 6.88C16.5541 6.816 16.7941 6.756 17.1301 6.7C17.4661 6.636 17.8301 6.604 18.2221 6.604ZM26.3876 12.376C26.2916 12.44 26.1036 12.524 25.8236 12.628C25.5516 12.724 25.2316 12.772 24.8636 12.772C24.4876 12.772 24.1316 12.712 23.7956 12.592C23.4676 12.472 23.1796 12.288 22.9316 12.04C22.6836 11.784 22.4876 11.468 22.3436 11.092C22.1996 10.716 22.1276 10.268 22.1276 9.748C22.1276 9.292 22.1956 8.876 22.3316 8.5C22.4676 8.116 22.6636 7.788 22.9196 7.516C23.1836 7.236 23.5036 7.02 23.8796 6.868C24.2556 6.708 24.6796 6.628 25.1516 6.628C25.6716 6.628 26.1236 6.668 26.5076 6.748C26.8996 6.82 27.2276 6.888 27.4916 6.952V12.52C27.4916 13.48 27.2436 14.176 26.7476 14.608C26.2516 15.04 25.4996 15.256 24.4916 15.256C24.0996 15.256 23.7276 15.224 23.3756 15.16C23.0316 15.096 22.7316 15.02 22.4756 14.932L22.6796 13.96C22.9036 14.048 23.1756 14.124 23.4956 14.188C23.8236 14.26 24.1636 14.296 24.5156 14.296C25.1796 14.296 25.6556 14.164 25.9436 13.9C26.2396 13.636 26.3876 13.216 26.3876 12.64V12.376ZM26.3756 7.744C26.2636 7.712 26.1116 7.684 25.9196 7.66C25.7356 7.628 25.4836 7.612 25.1636 7.612C24.5636 7.612 24.0996 7.808 23.7716 8.2C23.4516 8.592 23.2916 9.112 23.2916 9.76C23.2916 10.12 23.3356 10.428 23.4236 10.684C23.5196 10.94 23.6436 11.152 23.7956 11.32C23.9556 11.488 24.1356 11.612 24.3356 11.692C24.5436 11.772 24.7556 11.812 24.9716 11.812C25.2676 11.812 25.5396 11.772 25.7876 11.692C26.0356 11.604 26.2316 11.504 26.3756 11.392V7.744ZM36.8345 6.808C36.8345 7.096 36.7745 7.376 36.6545 7.648C36.5425 7.912 36.3905 8.176 36.1985 8.44C36.0065 8.696 35.7905 8.952 35.5505 9.208C35.3105 9.456 35.0705 9.7 34.8305 9.94C34.6945 10.076 34.5345 10.236 34.3505 10.42C34.1745 10.604 34.0065 10.796 33.8465 10.996C33.6865 11.196 33.5505 11.388 33.4385 11.572C33.3345 11.756 33.2825 11.916 33.2825 12.052H37.1105V13H32.0705C32.0625 12.952 32.0585 12.904 32.0585 12.856C32.0585 12.808 32.0585 12.764 32.0585 12.724C32.0585 12.348 32.1185 12 32.2385 11.68C32.3665 11.352 32.5305 11.044 32.7305 10.756C32.9305 10.468 33.1545 10.196 33.4025 9.94C33.6505 9.684 33.8945 9.436 34.1345 9.196C34.3345 9.004 34.5225 8.816 34.6985 8.632C34.8825 8.44 35.0425 8.252 35.1785 8.068C35.3225 7.876 35.4345 7.68 35.5145 7.48C35.6025 7.28 35.6465 7.068 35.6465 6.844C35.6465 6.604 35.6065 6.4 35.5265 6.232C35.4545 6.064 35.3545 5.924 35.2265 5.812C35.0985 5.7 34.9465 5.62 34.7705 5.572C34.6025 5.516 34.4225 5.488 34.2305 5.488C33.9985 5.488 33.7865 5.52 33.5945 5.584C33.4025 5.648 33.2305 5.724 33.0785 5.812C32.9265 5.892 32.7985 5.98 32.6945 6.076C32.5905 6.164 32.5105 6.232 32.4545 6.28L31.9025 5.488C31.9745 5.408 32.0825 5.312 32.2265 5.2C32.3705 5.08 32.5425 4.968 32.7425 4.864C32.9425 4.76 33.1665 4.672 33.4145 4.6C33.6625 4.528 33.9305 4.492 34.2185 4.492C35.0905 4.492 35.7425 4.696 36.1745 5.104C36.6145 5.504 36.8345 6.072 36.8345 6.808Z" fill="white"/>
<path d="M47.75 7.25L43.25 11.75" stroke="white" stroke-width="2" stroke-linecap="round" stroke-linejoin="round"/>
<path d="M43.25 7.25L47.75 11.75" stroke="white" stroke-width="2" stroke-linecap="round" stroke-linejoin="round"/>
</svg>
