<svg width="32" height="30" viewBox="0 0 32 30" fill="none" xmlns="http://www.w3.org/2000/svg">
<path d="M0 15C0 11.0218 1.68571 7.20644 4.68629 4.3934C7.68687 1.58035 11.7565 0 16 0C20.2435 0 24.3131 1.58035 27.3137 4.3934C30.3143 7.20644 32 11.0218 32 15C32 18.9782 30.3143 22.7936 27.3137 25.6066C24.3131 28.4196 20.2435 30 16 30C11.7565 30 7.68687 28.4196 4.68629 25.6066C1.68571 22.7936 0 18.9782 0 15ZM18 5.625C18 5.12772 17.7893 4.65081 17.4142 4.29917C17.0391 3.94754 16.5304 3.75 16 3.75C15.4696 3.75 14.9609 3.94754 14.5858 4.29917C14.2107 4.65081 14 5.12772 14 5.625C14 6.12228 14.2107 6.59919 14.5858 6.95083C14.9609 7.30246 15.4696 7.5 16 7.5C16.5304 7.5 17.0391 7.30246 17.4142 6.95083C17.7893 6.59919 18 6.12228 18 5.625ZM16 24.375C18.2062 24.375 20 22.6934 20 20.625C20 19.6055 19.5688 18.6855 18.8687 18.0117L22.875 9.47461C23.2062 8.76562 22.8625 7.93359 22.1063 7.62305C21.35 7.3125 20.4625 7.63477 20.1313 8.34375L16.1187 16.875C16.0812 16.875 16.0375 16.875 16 16.875C13.7937 16.875 12 18.5566 12 20.625C12 22.6934 13.7937 24.375 16 24.375ZM11 8.4375C11 7.94022 10.7893 7.46331 10.4142 7.11167C10.0391 6.76004 9.53043 6.5625 9 6.5625C8.46957 6.5625 7.96086 6.76004 7.58579 7.11167C7.21071 7.46331 7 7.94022 7 8.4375C7 8.93478 7.21071 9.41169 7.58579 9.76332C7.96086 10.115 8.46957 10.3125 9 10.3125C9.53043 10.3125 10.0391 10.115 10.4142 9.76332C10.7893 9.41169 11 8.93478 11 8.4375ZM6 16.875C6.53043 16.875 7.03914 16.6775 7.41421 16.3258C7.78929 15.9742 8 15.4973 8 15C8 14.5027 7.78929 14.0258 7.41421 13.6742C7.03914 13.3225 6.53043 13.125 6 13.125C5.46957 13.125 4.96086 13.3225 4.58579 13.6742C4.21071 14.0258 4 14.5027 4 15C4 15.4973 4.21071 15.9742 4.58579 16.3258C4.96086 16.6775 5.46957 16.875 6 16.875ZM28 15C28 14.5027 27.7893 14.0258 27.4142 13.6742C27.0391 13.3225 26.5304 13.125 26 13.125C25.4696 13.125 24.9609 13.3225 24.5858 13.6742C24.2107 14.0258 24 14.5027 24 15C24 15.4973 24.2107 15.9742 24.5858 16.3258C24.9609 16.6775 25.4696 16.875 26 16.875C26.5304 16.875 27.0391 16.6775 27.4142 16.3258C27.7893 15.9742 28 15.4973 28 15Z" fill="black"/>
</svg>
