<svg width="25" height="28" viewBox="0 0 25 28" fill="none" xmlns="http://www.w3.org/2000/svg">
<path d="M6.82244 24.8468C6.82315 25.1908 6.95526 25.5276 7.20312 25.8142L8.4169 27.2191C8.62425 27.4592 8.90549 27.6562 9.23559 27.7925C9.56569 27.9287 9.93441 28 10.3089 28H14.6918C15.0663 28 15.435 27.9287 15.7651 27.7925C16.0952 27.6562 16.3765 27.4592 16.5838 27.2191L17.7976 25.8142C18.0453 25.5276 18.1778 25.1911 18.1783 24.8468L18.1811 22.7496H6.81889L6.82244 24.8468ZM0 9.62484C0 12.0513 1.16832 14.265 3.09375 15.9564C4.26705 16.9873 6.10227 19.1408 6.80185 20.9575C6.80469 20.9717 6.80682 20.9859 6.80966 21.0001H18.1903C18.1932 20.9859 18.1953 20.9723 18.1982 20.9575C18.8977 19.1408 20.733 16.9873 21.9062 15.9564C23.8317 14.265 25 12.0513 25 9.62484C25 4.29894 19.3828 -0.0163593 12.4609 4.66244e-05C5.21591 0.0169994 0 4.53737 0 9.62484ZM12.5 5.24994C9.36719 5.24994 6.81818 7.21263 6.81818 9.62484C6.81818 10.1083 6.30966 10.4998 5.68182 10.4998C5.05398 10.4998 4.54545 10.1083 4.54545 9.62484C4.54545 6.24741 8.11364 3.49997 12.5 3.49997C13.1278 3.49997 13.6364 3.89153 13.6364 4.37495C13.6364 4.85838 13.1278 5.24994 12.5 5.24994Z" fill="black"/>
</svg>
