<svg width="32" height="18" viewBox="0 0 32 18" fill="none" xmlns="http://www.w3.org/2000/svg">
<path d="M25.7778 3.55556C26.2667 3.55556 26.6667 3.95556 26.6667 4.44444V13.3333C26.6667 13.8222 26.2667 14.2222 25.7778 14.2222H4.44444C3.95556 14.2222 3.55556 13.8222 3.55556 13.3333V4.44444C3.55556 3.95556 3.95556 3.55556 4.44444 3.55556H25.7778ZM4.44444 0C1.98889 0 0 1.98889 0 4.44444V13.3333C0 15.7889 1.98889 17.7778 4.44444 17.7778H25.7778C28.2333 17.7778 30.2222 15.7889 30.2222 13.3333V12.4444C31.2056 12.4444 32 11.65 32 10.6667V7.11111C32 6.12778 31.2056 5.33333 30.2222 5.33333V4.44444C30.2222 1.98889 28.2333 0 25.7778 0H4.44444ZM16 5.33333H5.33333V12.4444H16V5.33333Z" fill="black"/>
</svg>
